Jump_normalized_precision_landing09_filtered_grf
version=1
nRows=10
nColumns=37
inDegrees=yes
endheader
time		1_ground_force_vx		1_ground_force_vy		1_ground_force_vz		1_ground_force_px		1_ground_force_py		1_ground_force_pz		1_ground_torque_x		1_ground_torque_y		1_ground_torque_z		2_ground_force_vx		2_ground_force_vy		2_ground_force_vz		2_ground_force_px		2_ground_force_py		2_ground_force_pz		2_ground_torque_x		2_ground_torque_y		2_ground_torque_z		3_ground_force_vx		3_ground_force_vy		3_ground_force_vz		3_ground_force_px		3_ground_force_py		3_ground_force_pz		3_ground_torque_x		3_ground_torque_y		3_ground_torque_z		4_ground_force_vx		4_ground_force_vy		4_ground_force_vz		4_ground_force_px		4_ground_force_py		4_ground_force_pz		4_ground_torque_x		4_ground_torque_y		4_ground_torque_z		
0.763667		0.000000		-0.000000		-0.000000		0.092013		0.000000		0.304222		-0.000000		-0.000000		0.000000		-0.000000		-0.000000		-0.000000		-0.191147		0.000000		0.315249		-0.000000		0.000000		-0.000000		1.094832		353.673937		-77.902768		0.381188		1.275041		1.884752		-0.069493		-22.450763		4.945149		33.143351		367.504201		-94.044094		-0.351550		1.267099		1.874050		1.848854		20.500682		-5.246111		
0.767025		0.000000		-0.000000		-0.000000		0.092013		0.000000		0.304222		-0.000000		-0.000000		0.000000		-0.000000		-0.000000		-0.000000		-0.191147		0.000000		0.315249		-0.000000		0.000000		-0.000000		2.996588		338.485418		-81.540510		0.381226		1.275083		1.884842		3.007619		-33.791578		-46.547923		30.743645		347.067862		-96.148415		-0.351566		1.267077		1.874047		1.712929		19.337411		-5.357054		
0.770384		-0.000000		0.000000		-0.000000		0.092013		0.000000		0.304222		0.000000		0.000000		-0.000000		-0.000000		-0.000000		-0.000000		-0.191147		0.000000		0.315249		-0.000000		0.000000		-0.000000		4.563516		322.087360		-84.217316		0.381231		1.275121		1.884883		2.869999		-33.018167		-43.972259		28.406099		325.365714		-97.782460		-0.351566		1.267095		1.874069		1.578450		18.079691		-5.433500		
0.773742		-0.000000		0.000000		0.000000		0.092013		0.000000		0.304222		0.000000		0.000000		-0.000000		0.000000		0.000000		-0.000000		-0.191147		0.000000		0.315249		0.000000		-0.000000		0.000000		5.779326		304.520250		-85.830705		0.381209		1.275157		1.884880		2.717675		-32.000525		-41.274415		26.078486		302.600123		-98.685941		-0.351551		1.267160		1.874111		1.443597		16.750681		-5.462832		
0.777101		-0.000000		0.000000		0.000000		0.092013		0.000000		0.304222		0.000000		0.000000		-0.000000		0.000000		0.000000		0.000000		-0.191147		0.000000		0.315249		0.000000		-0.000000		0.000000		6.686163		285.823148		-86.365829		0.381168		1.275197		1.884849		2.558224		-30.733146		-38.464356		23.718730		278.991601		-98.504695		-0.351525		1.267261		1.874160		1.306959		15.373103		-5.427837		
0.780460		-0.000000		0.000000		0.000000		0.092013		0.000000		0.304222		0.000000		0.000000		-0.000000		0.000000		0.000000		0.000000		-0.191147		0.000000		0.315249		0.000000		-0.000000		0.000000		7.358959		266.050729		-85.831310		0.381119		1.275246		1.884804		2.395414		-29.220399		-35.549577		21.307817		254.722610		-96.900265		-0.351500		1.267390		1.874198		1.168266		13.965941		-5.312848		
0.783818		-0.000000		0.000000		0.000000		0.092013		0.000000		0.304222		0.000000		0.000000		-0.000000		0.000000		0.000000		0.000000		-0.191147		0.000000		0.315249		0.000000		-0.000000		0.000000		7.886915		245.293438		-84.222626		0.381072		1.275305		1.884754		2.232395		-27.475515		-32.538901		18.862302		229.949740		-93.590302		-0.351484		1.267531		1.874204		1.029022		12.544772		-5.105755		
0.787177		0.000000		-0.000000		-0.000000		0.092013		0.000000		0.304222		-0.000000		-0.000000		0.000000		0.000000		0.000000		0.000000		-0.191147		0.000000		0.315249		0.000000		-0.000000		0.000000		8.343691		223.715266		-81.488438		0.381032		1.275371		1.884705		2.071535		-25.517509		-29.451212		16.406862		204.829758		-88.462052		-0.351478		1.267672		1.874169		0.890915		11.122532		-4.803603		
0.790535		0.000000		-0.000000		-0.000000		0.092013		0.000000		0.304222		-0.000000		-0.000000		0.000000		-0.000000		-0.000000		0.000000		-0.191147		0.000000		0.315249		-0.000000		0.000000		-0.000000		8.771927		201.554788		-77.535527		0.380999		1.275440		1.884652		1.915726		-23.367468		-26.318191		13.953169		179.549982		-81.599965		-0.351482		1.267803		1.874081		0.754672		9.711145		-4.413417		
0.793894		0.000000		-0.000000		-0.000000		0.092013		0.000000		0.304222		-0.000000		-0.000000		0.000000		-0.000000		-0.000000		-0.000000		-0.191147		0.000000		0.315249		-0.000000		0.000000		-0.000000		9.187579		179.117859		-72.284505		0.380968		1.275508		1.884587		1.768958		-21.050080		-23.184780		11.494057		154.358442		-73.309917		-0.351489		1.267920		1.873941		0.619734		8.322669		-3.952708		
